<?xml version="1.0" encoding="utf-8"?>
<!-- Generator: Adobe Illustrator 16.0.0, SVG Export Plug-In . SVG Version: 6.00 Build 0)  -->
<!DOCTYPE svg PUBLIC "-//W3C//DTD SVG 1.1//EN" "http://www.w3.org/Graphics/SVG/1.1/DTD/svg11.dtd">
<svg version="1.1" id="Layer_1" xmlns="http://www.w3.org/2000/svg" xmlns:xlink="http://www.w3.org/1999/xlink" x="0px" y="0px"
	 width="595.28px" height="841.89px" viewBox="0 0 595.28 841.89" enable-background="new 0 0 595.28 841.89" xml:space="preserve">
<path fill="none" stroke="#FFFFFF" stroke-width="5" stroke-miterlimit="10" d="M251.928,281.017
	c-2.505-2.652-5.021-5.33-7.438-7.914c-3.66,2.123-7.906,3.344-12.44,3.344c-13.719,0-24.841-11.121-24.841-24.84
	s11.122-24.84,24.841-24.84c5.471,0,10.523,1.773,14.628,4.771l19.78-20.482c-9.884-8.734-22.87-14.039-37.096-14.039
	c-30.951,0-56.043,25.09-56.043,56.041c0,30.953,25.092,56.045,56.043,56.045c13.766,0,26.368-4.969,36.124-13.203
	C261.356,291.407,256.633,286.214,251.928,281.017z"/>
<path fill="none" stroke="#FFFFFF" stroke-width="5" stroke-miterlimit="10" d="M258.518,252.485c0,0,50.617,56.703,52.012,56.703
	c2.176,0,38.361-0.27,38.361-0.27l-51.533-56.377l51.533-55.611l-36.842,0.127L258.518,252.485z"/>
</svg>
